<?xml version="1.0" encoding="UTF-8"?>
<svg xmlns="http://www.w3.org/2000/svg" xmlns:xlink="http://www.w3.org/1999/xlink" viewBox="0 0 24 24" width="24px" height="24px">
<g id="surface84286028">
<path style="fill-rule:nonzero;fill:rgb(34.509805%,39.607844%,94.901961%);fill-opacity:1;stroke-width:4;stroke-linecap:butt;stroke-linejoin:round;stroke:rgb(34.509805%,39.607844%,94.901961%);stroke-opacity:1;stroke-miterlimit:10;" d="M 69.567657 30.950222 L 70.194193 32.203295 C 74.55147 31.690674 79.250494 31.291969 86.000002 31.462843 C 92.72103 31.291969 97.420054 31.690674 101.777331 32.203295 L 102.403868 30.950222 C 104.539788 26.820777 109.153375 24.485504 113.710005 25.368351 C 120.943654 26.792298 128.405135 29.269965 135.980531 32.317211 C 139.853666 33.855073 143.185701 36.560572 145.492495 40.063481 L 145.520974 40.063481 C 145.520974 40.063481 145.520974 40.09196 145.520974 40.09196 C 162.921603 66.406495 167.848458 93.660835 164.972086 120.972133 C 164.85817 122.025853 164.260113 122.965658 163.377266 123.535237 C 152.469834 130.39866 141.192176 136.407715 129.259503 140.537161 C 124.816789 142.046544 119.889933 140.309329 117.241392 136.407715 L 111.317774 127.550767 C 109.067938 128.177303 106.761145 128.746882 104.425872 129.231024 C 98.473775 130.740407 92.293846 131.566296 85.914565 131.566296 C 79.734636 131.566296 73.697102 130.768886 67.915879 129.344939 C 65.352774 128.832319 62.846628 128.26274 60.39744 127.579245 L 54.730132 136.26532 C 52.138549 140.252371 47.126257 142.046544 42.626585 140.508682 C 30.722391 136.379236 19.501691 130.39866 8.594259 123.535237 C 7.711412 122.965658 7.141833 122.025853 7.027917 120.972133 C 4.151545 93.660835 9.049922 66.406495 26.479029 40.063481 C 28.785823 36.589051 32.089379 33.883552 35.990993 32.317211 C 43.56639 29.298444 51.027871 26.792298 58.289999 25.368351 C 58.859577 25.254435 59.429156 25.197477 59.998735 25.168998 C 63.957307 25.083562 67.688047 27.333397 69.567657 30.950222 Z M 59.60003 32.117858 C 52.964438 33.427889 45.873184 35.763162 38.554097 38.696492 C 35.934036 39.750213 33.769637 41.515907 32.203295 43.879658 C 16.027261 68.343063 11.442152 93.119735 13.805904 118.579902 C 23.915925 124.873747 34.196821 130.313223 44.876421 133.987006 C 46.385804 134.528105 48.009104 133.987006 48.977387 132.506101 L 54.189032 124.532 C 52.195507 123.592195 50.201982 122.623911 48.293893 121.541711 C 46.926904 120.77278 46.24341 119.149481 46.642115 117.611619 C 47.069299 116.073756 48.493245 115.048514 50.088066 115.076993 C 50.657644 115.105472 51.227223 115.276346 51.711365 115.561135 C 57.805857 119.035565 64.41297 121.57019 71.36183 123.108053 C 76.032375 123.905463 80.845315 124.418084 85.886086 124.503521 C 91.12621 124.389605 96.110023 123.848505 100.922963 122.994137 C 107.700949 121.484754 114.165668 118.978607 120.117765 115.561135 C 121.199964 114.90612 122.538474 114.877641 123.649153 115.504177 C 124.731352 116.130714 125.386368 117.29835 125.386368 118.551423 C 125.357889 119.804496 124.645915 120.943654 123.535237 121.541711 C 121.598669 122.623911 119.605144 123.620674 117.58314 124.560478 L 122.965658 132.591538 C 123.962421 134.043964 125.528762 134.556584 127.038146 134.015485 C 137.717746 130.341702 148.02712 124.873747 158.165621 118.579902 C 160.557851 93.119735 155.972743 68.343063 139.796708 43.879658 L 139.768229 43.879658 C 139.768229 43.851179 139.768229 43.851179 139.768229 43.851179 C 138.201888 41.515907 136.00901 39.750213 133.417427 38.696492 C 126.098341 35.763162 119.007086 33.427889 112.371495 32.117858 C 110.862111 31.833069 109.352728 32.545042 108.555318 34.111384 L 106.903539 37.301024 C 106.220045 38.582576 104.824577 39.323029 103.372152 39.123676 C 98.929438 38.525619 93.632356 38.155392 86.085439 38.326266 C 86.028481 38.326266 85.971523 38.326266 85.914565 38.326266 C 78.367647 38.155392 73.042087 38.525619 68.599373 39.123676 C 67.175426 39.323029 65.75148 38.582576 65.067985 37.301024 L 63.444686 34.111384 C 62.846628 32.915269 61.821387 32.231774 60.739187 32.089379 C 60.368961 32.032422 59.970256 32.060901 59.60003 32.117858 Z M 120.658865 84.063434 C 120.658865 92.607114 115.276346 99.612932 108.697712 99.612932 C 102.147557 99.612932 96.73656 92.607114 96.73656 84.063434 C 96.73656 75.519754 102.147557 68.485457 108.697712 68.485457 C 115.276346 68.485457 120.658865 75.519754 120.658865 84.063434 Z M 76.089333 84.234308 C 76.089333 92.72103 70.621377 99.698369 64.014265 99.698369 C 57.378673 99.698369 51.939197 92.72103 51.939197 84.234308 C 51.939197 75.747585 57.378673 68.770247 64.014265 68.770247 C 70.621377 68.770247 76.089333 75.747585 76.089333 84.234308 Z M 76.089333 84.234308 " transform="matrix(0.137163,0,0,0.137163,0.204,0.204)"/>
<path style=" stroke:none;fill-rule:nonzero;fill:rgb(34.509805%,39.607844%,94.901961%);fill-opacity:1;" d="M 8.433594 3.65625 C 8.355469 3.660156 8.277344 3.667969 8.199219 3.683594 C 7.203125 3.878906 6.179688 4.222656 5.140625 4.636719 C 4.605469 4.851562 4.152344 5.222656 3.835938 5.699219 C 1.445312 9.3125 0.773438 13.050781 1.167969 16.796875 C 1.183594 16.941406 1.261719 17.070312 1.382812 17.148438 C 2.878906 18.089844 4.417969 18.910156 6.050781 19.476562 C 6.667969 19.6875 7.355469 19.441406 7.710938 18.894531 L 8.488281 17.703125 C 8.824219 17.796875 9.167969 17.875 9.519531 17.945312 C 10.3125 18.140625 11.140625 18.25 11.988281 18.25 C 12.863281 18.25 13.710938 18.136719 14.527344 17.929688 C 14.847656 17.863281 15.164062 17.785156 15.472656 17.699219 L 16.289062 18.914062 C 16.648438 19.449219 17.324219 19.6875 17.933594 19.480469 C 19.570312 18.914062 21.117188 18.089844 22.613281 17.148438 C 22.734375 17.070312 22.816406 16.941406 22.832031 16.796875 C 23.226562 13.050781 22.550781 9.3125 20.164062 5.703125 C 20.164062 5.703125 20.164062 5.699219 20.164062 5.699219 L 20.160156 5.699219 C 19.84375 5.21875 19.386719 4.847656 18.855469 4.636719 C 17.816406 4.21875 16.792969 3.878906 15.800781 3.683594 C 15.175781 3.5625 14.542969 3.882812 14.25 4.449219 L 14.164062 4.621094 C 13.566406 4.550781 12.921875 4.496094 12 4.519531 C 11.074219 4.496094 10.429688 4.550781 9.832031 4.621094 L 9.746094 4.449219 C 9.488281 3.953125 8.976562 3.644531 8.433594 3.65625 Z M 8.535156 4.605469 C 8.683594 4.625 8.824219 4.71875 8.90625 4.882812 L 9.128906 5.320312 C 9.222656 5.496094 9.417969 5.597656 9.613281 5.570312 C 10.222656 5.488281 10.953125 5.4375 11.988281 5.460938 C 11.996094 5.460938 12.003906 5.460938 12.011719 5.460938 C 13.046875 5.4375 13.773438 5.488281 14.382812 5.570312 C 14.582031 5.597656 14.777344 5.496094 14.867188 5.320312 L 15.09375 4.882812 C 15.203125 4.667969 15.410156 4.570312 15.617188 4.609375 C 16.527344 4.789062 17.5 5.109375 18.503906 5.511719 C 18.859375 5.65625 19.160156 5.898438 19.375 6.21875 C 19.375 6.21875 19.375 6.21875 19.375 6.222656 L 19.378906 6.222656 C 21.597656 9.578125 22.226562 12.976562 21.898438 16.46875 C 20.507812 17.332031 19.09375 18.082031 17.628906 18.585938 C 17.421875 18.660156 17.207031 18.589844 17.070312 18.390625 L 16.332031 17.289062 C 16.609375 17.160156 16.882812 17.023438 17.148438 16.875 C 17.300781 16.792969 17.398438 16.636719 17.402344 16.464844 C 17.402344 16.292969 17.3125 16.132812 17.164062 16.046875 C 17.011719 15.960938 16.828125 15.964844 16.679688 16.054688 C 15.863281 16.523438 14.976562 16.867188 14.046875 17.074219 C 13.386719 17.191406 12.703125 17.265625 11.984375 17.28125 C 11.292969 17.269531 10.632812 17.199219 9.992188 17.089844 C 9.039062 16.878906 8.132812 16.53125 7.296875 16.054688 C 7.230469 16.015625 7.152344 15.992188 7.074219 15.988281 C 6.855469 15.984375 6.660156 16.125 6.601562 16.335938 C 6.546875 16.546875 6.640625 16.769531 6.828125 16.875 C 7.089844 17.023438 7.363281 17.15625 7.636719 17.285156 L 6.921875 18.378906 C 6.789062 18.582031 6.566406 18.65625 6.359375 18.582031 C 4.894531 18.078125 3.484375 17.332031 2.097656 16.46875 C 1.773438 12.976562 2.402344 9.578125 4.621094 6.222656 C 4.835938 5.898438 5.132812 5.65625 5.492188 5.511719 C 6.496094 5.109375 7.46875 4.789062 8.378906 4.609375 C 8.429688 4.601562 8.484375 4.597656 8.535156 4.605469 Z M 15.113281 9.597656 C 14.214844 9.597656 13.472656 10.5625 13.472656 11.734375 C 13.472656 12.90625 14.214844 13.867188 15.113281 13.867188 C 16.015625 13.867188 16.753906 12.90625 16.753906 11.734375 C 16.753906 10.5625 16.015625 9.597656 15.113281 9.597656 Z M 8.984375 9.636719 C 8.074219 9.636719 7.328125 10.59375 7.328125 11.757812 C 7.328125 12.921875 8.074219 13.878906 8.984375 13.878906 C 9.890625 13.878906 10.640625 12.921875 10.640625 11.757812 C 10.640625 10.59375 9.890625 9.636719 8.984375 9.636719 Z M 8.984375 9.636719 "/>
</g>
</svg>
