<?xml version="1.0" encoding="UTF-8"?>
<svg xmlns="http://www.w3.org/2000/svg" xmlns:xlink="http://www.w3.org/1999/xlink" viewBox="0 0 24 24" width="24px" height="24px">
<g id="surface84330673">
<path style="fill-rule:nonzero;fill:rgb(0%,0%,0%);fill-opacity:1;stroke-width:5;stroke-linecap:butt;stroke-linejoin:round;stroke:rgb(100%,100%,100%);stroke-opacity:1;stroke-miterlimit:10;" d="M 27.53275 17.194897 C 28.757344 17.194897 29.92498 17.821433 30.551517 18.903633 C 31.178054 19.985832 31.178054 21.295863 30.551517 22.378063 C 29.92498 23.431783 28.757344 24.086799 27.53275 24.086799 L 20.640848 24.086799 L 20.640848 147.913204 L 27.53275 147.913204 C 28.757344 147.913204 29.92498 148.56822 30.551517 149.62194 C 31.178054 150.70414 31.178054 152.014171 30.551517 153.09637 C 29.92498 154.17857 28.757344 154.805106 27.53275 154.805106 L 17.194897 154.805106 C 15.286808 154.805106 13.748946 153.267244 13.748946 151.359155 L 13.748946 20.640848 C 13.748946 18.732759 15.286808 17.194897 17.194897 17.194897 Z M 154.805106 17.194897 C 156.713195 17.194897 158.251058 18.732759 158.251058 20.640848 L 158.251058 151.359155 C 158.251058 153.267244 156.713195 154.805106 154.805106 154.805106 L 144.467253 154.805106 C 143.242659 154.805106 142.075023 154.17857 141.448486 153.09637 C 140.82195 152.014171 140.82195 150.70414 141.448486 149.62194 C 142.075023 148.56822 143.242659 147.913204 144.467253 147.913204 L 151.359155 147.913204 L 151.359155 24.086799 L 144.467253 24.086799 C 143.242659 24.086799 142.075023 23.431783 141.448486 22.378063 C 140.82195 21.295863 140.82195 19.985832 141.448486 18.903633 C 142.075023 17.821433 143.242659 17.194897 144.467253 17.194897 Z M 121.911938 68.40002 C 122.965658 70.478983 123.848505 72.244677 123.848505 75.690628 L 123.848505 110.09318 L 111.232337 110.09318 L 111.232337 78.595479 C 110.89059 73.867976 107.615513 71.532703 103.258236 71.048561 C 98.359859 70.507462 94.173456 72.700339 93.034298 77.171532 C 92.550157 79.193536 92.322325 81.272499 92.293846 83.351461 L 92.293846 110.09318 L 79.677678 110.09318 C 79.677678 110.09318 79.734636 80.418131 79.677678 79.449847 C 79.449847 73.953413 76.744348 71.418787 72.102282 71.020082 C 67.203905 70.649856 62.163134 73.583186 61.166371 78.367647 C 60.853103 79.90551 60.796145 81.528809 60.767666 83.123629 C 60.739187 92.066015 60.767666 110.09318 60.767666 110.09318 L 48.151498 110.09318 L 48.151498 61.906823 L 60.796145 61.906823 L 60.796145 68.257626 C 65.096464 63.102939 69.994841 60.255045 76.203248 60.368961 C 82.326219 60.482877 87.680259 62.049218 90.642068 67.972836 C 92.578635 66.292579 94.287372 64.555364 96.252418 63.216854 C 99.299664 61.109413 103.115841 60.169608 106.903539 60.226566 C 113.197384 60.368961 119.405791 63.302291 121.911938 68.40002 Z M 121.911938 68.40002 " transform="matrix(0.137163,0,0,0.137163,0.204,0.204)"/>
<path style=" stroke:none;fill-rule:nonzero;fill:rgb(100%,100%,100%);fill-opacity:1;" d="M 2.5625 2.5625 C 2.300781 2.5625 2.089844 2.773438 2.089844 3.035156 L 2.089844 20.964844 C 2.089844 21.226562 2.300781 21.4375 2.5625 21.4375 L 3.980469 21.4375 C 4.148438 21.4375 4.308594 21.351562 4.394531 21.203125 C 4.480469 21.054688 4.480469 20.875 4.394531 20.726562 C 4.308594 20.582031 4.148438 20.492188 3.980469 20.492188 L 3.035156 20.492188 L 3.035156 3.507812 L 3.980469 3.507812 C 4.148438 3.507812 4.308594 3.417969 4.394531 3.273438 C 4.480469 3.125 4.480469 2.945312 4.394531 2.796875 C 4.308594 2.648438 4.148438 2.5625 3.980469 2.5625 Z M 20.019531 2.5625 C 19.851562 2.5625 19.691406 2.648438 19.605469 2.796875 C 19.519531 2.945312 19.519531 3.125 19.605469 3.273438 C 19.691406 3.417969 19.851562 3.507812 20.019531 3.507812 L 20.964844 3.507812 L 20.964844 20.492188 L 20.019531 20.492188 C 19.851562 20.492188 19.691406 20.582031 19.605469 20.726562 C 19.519531 20.875 19.519531 21.054688 19.605469 21.203125 C 19.691406 21.351562 19.851562 21.4375 20.019531 21.4375 L 21.4375 21.4375 C 21.699219 21.4375 21.910156 21.226562 21.910156 20.964844 L 21.910156 3.035156 C 21.910156 2.773438 21.699219 2.5625 21.4375 2.5625 Z M 14.867188 8.464844 C 14.347656 8.457031 13.824219 8.585938 13.40625 8.875 C 13.136719 9.058594 12.902344 9.296875 12.636719 9.527344 C 12.230469 8.714844 11.496094 8.5 10.65625 8.484375 C 9.804688 8.46875 9.132812 8.859375 8.542969 9.566406 L 8.542969 8.695312 L 6.808594 8.695312 L 6.808594 15.304688 L 8.539062 15.304688 C 8.539062 15.304688 8.535156 12.832031 8.539062 11.605469 C 8.542969 11.386719 8.550781 11.164062 8.59375 10.953125 C 8.730469 10.296875 9.421875 9.894531 10.09375 9.945312 C 10.730469 10 11.101562 10.347656 11.132812 11.101562 C 11.140625 11.234375 11.132812 15.304688 11.132812 15.304688 L 12.863281 15.304688 L 12.863281 11.636719 C 12.867188 11.351562 12.898438 11.066406 12.964844 10.789062 C 13.121094 10.175781 13.695312 9.875 14.367188 9.949219 C 14.964844 10.015625 15.414062 10.335938 15.460938 10.984375 L 15.460938 15.304688 L 17.191406 15.304688 L 17.191406 10.585938 C 17.191406 10.113281 17.070312 9.871094 16.925781 9.585938 C 16.582031 8.886719 15.730469 8.484375 14.867188 8.464844 Z M 14.867188 8.464844 "/>
</g>
</svg>
